<svg width="86" height="13" viewBox="0 0 86 13" fill="none" xmlns="http://www.w3.org/2000/svg">
<path fill-rule="evenodd" clip-rule="evenodd" d="M21.3033 12.6438H22.8894L25.7609 9.40272H38.2586L41.1301 12.6438H42.7162L31.9961 0L21.3033 12.6438ZM26.8001 8.0493L31.9961 1.99452L37.1921 8.0493H26.8001ZM46.5185 0.391704L63.2551 11.0054V0.391704H64.3763V12.6437H63.2004L46.4638 1.95882V12.6437H45.3426V0.391704H46.5185ZM67.3018 1.74513V0.391704H85.98V1.74513H77.2015V12.6437H76.0529V1.74513H67.3018ZM18.1039 7.37261H8.6691V6.05481H19.3072V6.12604V10.7918C16.9827 12.2877 14.1112 13 10.5834 13C5.52416 13 0 10.7206 0 6.48221C0 2.20824 5.6062 0.0356453 10.3646 0.0356453C14.2206 0.0356453 17.1468 1.13975 18.815 2.35071L18.1586 3.52605C16.5725 2.35071 13.7831 1.38907 10.3646 1.38907C6.48132 1.38907 1.34002 2.95619 1.34002 6.48221C1.34002 9.97261 6.37193 11.6822 10.5561 11.6822C14.1112 11.6822 16.4631 10.9342 18.1039 9.97261V7.37261Z" fill="black"/>
</svg>
