<svg width="16" height="16" viewBox="0 0 16 16" fill="none" xmlns="http://www.w3.org/2000/svg">
<path fill-rule="evenodd" clip-rule="evenodd" d="M8.00156 1.44091C10.1395 1.44091 10.3927 1.45028 11.2334 1.48779C12.0148 1.52217 12.4368 1.65345 12.7181 1.76284C13.0901 1.90662 13.3589 2.08166 13.637 2.35984C13.9183 2.64114 14.0903 2.90682 14.234 3.27877C14.3434 3.56007 14.4747 3.98515 14.5091 4.76343C14.5466 5.60735 14.556 5.86052 14.556 7.99531C14.556 10.1332 14.5466 10.3864 14.5091 11.2272C14.4747 12.0086 14.3434 12.4306 14.234 12.7119C14.0903 13.0838 13.9152 13.3526 13.637 13.6308C13.3557 13.9121 13.0901 14.084 12.7181 14.2278C12.4368 14.3372 12.0117 14.4685 11.2334 14.5028C10.3895 14.5403 10.1364 14.5497 8.00156 14.5497C5.86365 14.5497 5.61047 14.5403 4.76968 14.5028C3.98828 14.4685 3.56632 14.3372 3.28502 14.2278C2.91307 14.084 2.64427 13.909 2.36609 13.6308C2.08478 13.3495 1.91287 13.0838 1.7691 12.7119C1.6597 12.4306 1.52842 12.0055 1.49404 11.2272C1.45653 10.3833 1.44716 10.1301 1.44716 7.99531C1.44716 5.85739 1.45653 5.60422 1.49404 4.76343C1.52842 3.98203 1.6597 3.56007 1.7691 3.27877C1.91287 2.90682 2.08791 2.63802 2.36609 2.35984C2.64739 2.07853 2.91307 1.90662 3.28502 1.76284C3.56632 1.65345 3.9914 1.52217 4.76968 1.48779C5.61047 1.45028 5.86365 1.44091 8.00156 1.44091ZM8.00156 0C5.82926 0 5.55734 0.00937683 4.70404 0.0468842C3.85388 0.0843915 3.26939 0.221918 2.76304 0.418832C2.23481 0.625122 1.78785 0.89705 1.34401 1.34401C0.89705 1.78785 0.625122 2.23481 0.418832 2.75991C0.221918 3.26939 0.0843915 3.85075 0.0468842 4.70092C0.00937683 5.55734 0 5.82926 0 8.00156C0 10.1739 0.00937683 10.4458 0.0468842 11.2991C0.0843915 12.1492 0.221918 12.7337 0.418832 13.2401C0.625122 13.7683 0.89705 14.2153 1.34401 14.6591C1.78785 15.103 2.23481 15.378 2.75991 15.5812C3.26939 15.7781 3.85075 15.9156 4.70092 15.9531C5.55421 15.9906 5.82614 16 7.99844 16C10.1707 16 10.4427 15.9906 11.296 15.9531C12.1461 15.9156 12.7306 15.7781 13.237 15.5812C13.7621 15.378 14.209 15.103 14.6529 14.6591C15.0967 14.2153 15.3718 13.7683 15.5749 13.2432C15.7718 12.7337 15.9094 12.1524 15.9469 11.3022C15.9844 10.4489 15.9937 10.177 15.9937 8.00469C15.9937 5.83239 15.9844 5.56046 15.9469 4.70717C15.9094 3.857 15.7718 3.27251 15.5749 2.76617C15.378 2.23481 15.1061 1.78785 14.6591 1.34401C14.2153 0.900176 13.7683 0.625122 13.2432 0.421957C12.7337 0.225044 12.1524 0.0875171 11.3022 0.0500098C10.4458 0.00937684 10.1739 0 8.00156 0ZM8.00255 3.89068C5.73335 3.89068 3.89237 5.73166 3.89237 8.00085C3.89237 10.27 5.73335 12.111 8.00255 12.111C10.2717 12.111 12.1127 10.27 12.1127 8.00085C12.1127 5.73166 10.2717 3.89068 8.00255 3.89068ZM8.00255 10.667C6.53038 10.667 5.3364 9.47302 5.3364 8.00085C5.3364 6.52869 6.53038 5.33471 8.00255 5.33471C9.47471 5.33471 10.6687 6.52869 10.6687 8.00085C10.6687 9.47302 9.47471 10.667 8.00255 10.667ZM12.2758 4.68871C12.804 4.68871 13.2353 4.2605 13.2353 3.72915C13.2353 3.20092 12.804 2.76958 12.2758 2.76958C11.7475 2.76958 11.3162 3.19779 11.3162 3.72915C11.3162 4.25738 11.7444 4.68871 12.2758 4.68871Z" fill="black"/>
</svg>
