<svg width="30" height="30" viewBox="0 0 30 30" fill="none" xmlns="http://www.w3.org/2000/svg">
<path fill-rule="evenodd" clip-rule="evenodd" d="M15 0C20.5 0 25.375 3 28 7.5H2.00001C4.62501 3 9.50001 0 15 0ZM15 30C9.37501 30 4.62501 27 2.00001 22.5H28C25.375 27 20.625 30 15 30Z" fill="#0E46D4"/>
<path d="M2 7.5C0.75 9.75 0 12.25 0 15C0 17.75 0.75 20.25 2 22.5H28C29.25 20.25 30 17.75 30 15C30 12.25 29.25 9.75 28 7.5H2Z" fill="white"/>
<path fill-rule="evenodd" clip-rule="evenodd" d="M11.3085 16.9759L10.7583 17.9664H11.8913H13.5671L14.4106 19.4847L14.9933 20.5337L15.5761 19.4847L16.4196 17.9664H18.0954H19.2284L18.6782 16.9759L17.824 15.4384L18.6782 13.9009L19.2284 12.9105L18.0954 12.9105H16.4196L15.5761 11.3922L14.9933 10.3432L14.4106 11.3922L13.5671 12.9105H11.8913H10.7583L11.3085 13.9009L12.1627 15.4384L11.3085 16.9759ZM12.544 16.1248L12.2616 16.633L11.8913 17.2997H12.6539H13.1967L12.544 16.1248ZM13.9593 17.2997L12.9253 15.4384L13.9593 13.5772H16.0274L17.0614 15.4384L16.0274 17.2997H13.9593ZM14.3297 17.9664L14.612 18.4745L14.9933 19.1609L15.3747 18.4745L15.657 17.9664L14.3297 17.9664ZM16.79 17.2997H17.3328H18.0954L17.7251 16.633L17.4427 16.1248L16.79 17.2997ZM17.4427 14.7521L17.7251 14.2438L18.0954 13.5772H17.3328H16.79L17.4427 14.7521ZM15.657 12.9105L15.3747 12.4023L14.9933 11.716L14.612 12.4023L14.3297 12.9105H15.657ZM13.1967 13.5772L12.544 14.7521L12.2616 14.2438L11.8913 13.5772H12.6539H13.1967Z" fill="#093EC5"/>
<circle cx="15" cy="15" r="14.75" stroke="#CFCFCF" stroke-width="0.5"/>
</svg>
