<svg width="12" height="15" viewBox="0 0 12 15" fill="none" xmlns="http://www.w3.org/2000/svg">
<path fill-rule="evenodd" clip-rule="evenodd" d="M10.5709 5.92231C10.5709 7.92224 9.36879 9.92596 7.98932 11.5334C7.31784 12.3158 6.64326 12.9593 6.13595 13.4071C6.08889 13.4487 6.04334 13.4885 5.99944 13.5265C5.95554 13.4885 5.91 13.4487 5.86294 13.4071C5.35562 12.9593 4.68105 12.3158 4.00957 11.5334C2.6301 9.92596 1.42801 7.92224 1.42801 5.92231C1.42801 3.35057 3.48658 1.28739 5.99944 1.28739C8.5123 1.28739 10.5709 3.35057 10.5709 5.92231ZM11.7137 5.92231C11.7137 10.7641 5.99944 15.0017 5.99944 15.0017C5.99944 15.0017 0.285156 10.7641 0.285156 5.92231C0.285156 2.73133 2.84353 0.144531 5.99944 0.144531C9.15536 0.144531 11.7137 2.73133 11.7137 5.92231ZM8.28516 5.85882C8.28516 7.12118 7.26181 8.14453 5.99944 8.14453C4.73708 8.14453 3.71373 7.12118 3.71373 5.85882C3.71373 4.59645 4.73708 3.5731 5.99944 3.5731C7.26181 3.5731 8.28516 4.59645 8.28516 5.85882ZM9.42801 5.85882C9.42801 7.75236 7.89299 9.28739 5.99944 9.28739C4.10589 9.28739 2.57087 7.75236 2.57087 5.85882C2.57087 3.96527 4.10589 2.43025 5.99944 2.43025C7.89299 2.43025 9.42801 3.96527 9.42801 5.85882Z" fill="black"/>
</svg>
