<svg width="17" height="12" viewBox="0 0 17 12" fill="none" xmlns="http://www.w3.org/2000/svg">
<path d="M16.8379 2.4286C16.8379 2.4286 16.6816 1.32526 16.2002 0.840789C15.5907 0.203165 14.9094 0.200039 14.5968 0.162532C12.3589 -8.94244e-08 8.99883 0 8.99883 0H8.99258C8.99258 0 5.63255 -8.94244e-08 3.39461 0.162532C3.08205 0.200039 2.40067 0.203165 1.79117 0.840789C1.30983 1.32526 1.15667 2.4286 1.15667 2.4286C1.15667 2.4286 0.994141 3.72573 0.994141 5.01973V6.23247C0.994141 7.52647 1.15355 8.8236 1.15355 8.8236C1.15355 8.8236 1.30983 9.92694 1.78805 10.4114C2.39754 11.049 3.1977 11.0272 3.55402 11.0959C4.83552 11.2178 8.9957 11.2553 8.9957 11.2553C8.9957 11.2553 12.3589 11.2491 14.5968 11.0897C14.9094 11.0522 15.5907 11.049 16.2002 10.4114C16.6816 9.92694 16.8379 8.8236 16.8379 8.8236C16.8379 8.8236 16.9973 7.5296 16.9973 6.23247V5.01973C16.9973 3.72573 16.8379 2.4286 16.8379 2.4286ZM7.34226 7.70463V3.20688L11.665 5.46357L7.34226 7.70463Z" fill="black"/>
</svg>
